<?xml version="1.0" standalone="no"?>
<!DOCTYPE svg PUBLIC "-//W3C//DTD SVG 20010904//EN"
 "http://www.w3.org/TR/2001/REC-SVG-20010904/DTD/svg10.dtd">
<svg version="1.0" xmlns="http://www.w3.org/2000/svg"
 width="70.000000pt" height="70.000000pt" viewBox="0 0 70.000000 70.000000"
 preserveAspectRatio="xMidYMid meet">
<metadata>
Created by potrace 1.14, written by Peter Selinger 2001-2017
</metadata>
<g transform="translate(0.000000,70.000000) scale(0.100000,-0.100000)"
fill="#000000" stroke="none">
<path d="M280 637 c-28 -34 -36 -82 -19 -103 6 -8 8 -14 3 -14 -5 0 -1 -5 9
-11 24 -14 22 -21 -16 -60 -19 -19 -32 -40 -29 -47 2 -6 -2 -12 -8 -12 -6 0
-10 -10 -9 -22 2 -13 1 -27 -2 -33 -4 -5 -9 -26 -13 -46 -6 -35 -41 -77 -61
-74 -5 1 -18 5 -28 9 -9 5 -25 5 -35 0 -9 -4 -21 -6 -25 -5 -11 2 -46 -40 -47
-55 0 -7 16 -29 35 -50 19 -22 35 -35 35 -31 0 4 9 -1 20 -11 12 -11 31 -19
43 -18 12 1 25 -2 28 -7 7 -10 355 -11 372 0 6 4 18 8 27 8 25 2 115 59 118
75 11 47 10 54 -11 69 -12 9 -24 16 -27 17 -3 0 -13 4 -22 8 -10 5 -26 5 -35
0 -29 -12 -37 -11 -60 9 -21 18 -50 114 -44 145 1 6 -3 12 -9 12 -6 0 -9 4 -6
8 3 5 -10 26 -29 48 l-34 39 18 31 c25 42 21 84 -11 122 -22 26 -34 32 -65 31
-30 0 -43 -6 -63 -32z m90 -43 c0 -8 6 -14 13 -15 10 0 10 -2 0 -6 -7 -2 -13
-10 -13 -18 0 -7 -6 -18 -14 -24 -12 -10 -18 -8 -30 11 -18 27 -11 65 13 71
21 5 31 -1 31 -19z m-13 -234 c-3 -11 -2 -22 3 -25 4 -2 11 -19 15 -37 12 -49
12 -52 4 -63 -4 -5 -9 -23 -11 -40 -2 -22 -8 -30 -23 -30 -15 0 -21 8 -23 33
-2 17 -8 32 -13 32 -10 0 -8 15 12 90 11 39 23 59 38 60 2 0 1 -9 -2 -20z
m-102 -150 c1 -22 -2 -40 -6 -40 -5 0 -9 5 -9 10 0 6 -8 10 -17 10 -17 1 -17
1 0 14 9 7 17 24 17 36 0 39 13 13 15 -30z m212 -3 c12 -7 12 -11 -4 -23 -24
-18 -32 -17 -28 4 2 9 4 28 5 42 2 21 3 22 7 5 3 -11 12 -24 20 -28z m-336
-69 c6 -10 11 -10 19 -2 13 13 50 7 50 -8 0 -5 3 -7 8 -4 4 2 16 -2 27 -10 18
-13 18 -14 -6 -16 -13 0 -32 0 -42 0 -26 3 -118 48 -111 55 9 9 47 -1 55 -15z
m484 12 c3 -5 -6 -12 -20 -16 -14 -3 -25 -9 -25 -13 0 -4 -6 -8 -12 -9 -7 -1
-37 -6 -65 -10 -29 -5 -53 -6 -53 -2 0 16 64 42 91 36 20 -4 31 -1 35 7 5 15
41 20 49 7z"/>
</g>
</svg>
